<svg id="svg" xmlns="http://www.w3.org/2000/svg" xmlns:xlink="http://www.w3.org/1999/xlink" width="400" height="276.0330578512397" viewBox="0, 0, 400,276.0330578512397"><g id="svgg"><path id="path0" d="M50.380 42.060 C 49.834 42.463,49.827 42.836,49.745 75.271 C 49.659 109.679,49.667 109.926,50.864 110.247 C 51.914 110.529,76.511 110.417,77.847 110.125 C 78.530 109.976,80.247 109.667,81.663 109.439 C 83.078 109.211,84.755 108.833,85.389 108.598 C 86.024 108.364,87.350 107.920,88.337 107.612 C 89.324 107.304,90.317 106.893,90.545 106.700 C 90.773 106.506,91.518 106.082,92.202 105.758 C 93.865 104.967,95.369 104.028,96.150 103.294 C 96.503 102.963,96.924 102.692,97.086 102.692 C 97.825 102.692,102.978 96.653,104.152 94.410 C 104.510 93.727,105.073 92.733,105.402 92.202 C 105.732 91.670,106.003 91.072,106.003 90.873 C 106.004 90.674,106.308 89.867,106.680 89.079 C 107.051 88.291,107.492 86.777,107.660 85.714 C 107.828 84.651,108.164 83.099,108.407 82.264 C 108.945 80.412,109.011 72.068,108.502 70.117 C 108.324 69.434,108.061 68.316,107.918 67.633 C 107.270 64.544,106.994 63.566,106.516 62.668 C 106.235 62.139,106.004 61.539,106.004 61.335 C 106.004 60.829,103.871 56.864,103.218 56.159 C 102.929 55.845,102.692 55.494,102.692 55.378 C 102.692 55.159,99.989 51.901,99.537 51.575 C 99.396 51.474,98.837 51.008,98.295 50.540 C 96.186 48.720,94.896 47.757,94.565 47.757 C 94.375 47.757,93.999 47.513,93.729 47.215 C 93.460 46.917,92.788 46.528,92.237 46.349 C 91.686 46.170,90.884 45.778,90.455 45.476 C 90.025 45.175,89.156 44.813,88.522 44.673 C 87.889 44.533,86.848 44.167,86.210 43.861 C 85.572 43.554,83.895 43.125,82.483 42.906 C 81.072 42.688,79.420 42.366,78.813 42.191 C 76.961 41.657,51.086 41.538,50.380 42.060 M132.603 42.024 C 131.750 43.406,131.026 45.060,130.673 46.441 C 130.444 47.334,129.956 48.710,129.589 49.498 C 129.222 50.287,128.921 51.159,128.919 51.438 C 128.918 51.716,128.559 52.772,128.121 53.784 C 127.684 54.796,127.240 56.109,127.135 56.700 C 127.030 57.292,126.772 58.039,126.561 58.360 C 126.350 58.682,125.975 59.750,125.728 60.735 C 125.480 61.720,125.100 62.805,124.883 63.145 C 124.667 63.486,124.291 64.542,124.048 65.492 C 123.806 66.442,123.377 67.674,123.094 68.230 C 122.811 68.787,122.446 69.842,122.283 70.577 C 122.119 71.311,121.697 72.533,121.345 73.292 C 120.993 74.051,120.618 75.169,120.511 75.776 C 120.405 76.384,120.138 77.159,119.919 77.500 C 119.700 77.841,119.322 78.897,119.080 79.847 C 118.837 80.796,118.404 82.035,118.118 82.600 C 117.831 83.164,117.460 84.282,117.294 85.084 C 117.127 85.886,116.825 86.806,116.621 87.128 C 116.418 87.451,116.048 88.507,115.800 89.475 C 115.552 90.443,115.180 91.499,114.972 91.821 C 114.765 92.144,114.391 93.194,114.142 94.156 C 113.893 95.117,113.504 96.262,113.278 96.699 C 113.051 97.137,112.640 98.355,112.364 99.407 C 112.088 100.459,111.738 101.473,111.585 101.660 C 111.433 101.848,111.087 102.809,110.816 103.796 C 110.545 104.783,110.090 106.046,109.804 106.603 C 109.453 107.287,109.312 108.047,109.370 108.949 L 109.455 110.283 118.520 110.283 L 127.584 110.283 128.250 109.508 C 128.617 109.082,128.916 108.486,128.916 108.183 C 128.916 107.880,129.275 106.676,129.714 105.507 C 130.153 104.338,130.659 102.735,130.840 101.946 C 131.021 101.156,131.502 99.851,131.908 99.047 L 132.647 97.585 142.169 97.511 C 151.942 97.436,153.049 97.535,153.314 98.511 C 153.382 98.761,153.589 99.648,153.774 100.483 C 153.960 101.318,154.296 102.365,154.521 102.810 C 154.746 103.255,155.145 104.518,155.407 105.617 C 155.671 106.728,156.283 108.238,156.783 109.018 L 157.684 110.421 166.143 110.417 C 175.491 110.413,175.845 110.377,175.845 109.445 C 175.845 108.433,175.026 105.438,174.338 103.934 C 173.991 103.175,173.619 102.062,173.511 101.462 C 173.403 100.862,173.076 99.903,172.785 99.332 C 172.493 98.760,172.117 97.651,171.949 96.867 C 171.781 96.083,171.416 95.054,171.137 94.581 C 170.859 94.107,170.493 93.099,170.325 92.340 C 170.156 91.580,169.731 90.338,169.378 89.579 C 169.026 88.820,168.650 87.709,168.542 87.110 C 168.435 86.511,168.063 85.455,167.717 84.763 C 167.370 84.072,166.998 83.015,166.888 82.414 C 166.779 81.814,166.468 80.883,166.198 80.344 C 165.928 79.806,165.551 78.682,165.362 77.847 C 165.172 77.012,164.858 76.074,164.664 75.762 C 164.470 75.451,164.094 74.395,163.829 73.416 C 163.565 72.437,163.192 71.381,163.001 71.070 C 162.810 70.758,162.444 69.702,162.188 68.723 C 161.931 67.744,161.537 66.598,161.311 66.177 C 161.085 65.756,160.652 64.517,160.349 63.423 C 160.046 62.329,159.680 61.292,159.536 61.119 C 159.392 60.946,159.042 59.916,158.757 58.832 C 158.472 57.747,158.115 56.705,157.963 56.518 C 157.812 56.330,157.424 55.207,157.102 54.023 C 156.779 52.838,156.346 51.596,156.139 51.262 C 155.932 50.929,155.615 50.035,155.434 49.275 C 155.253 48.516,154.879 47.398,154.603 46.791 C 154.326 46.184,153.894 44.972,153.641 44.099 C 152.923 41.623,153.210 41.684,142.197 41.684 C 135.054 41.684,132.764 41.765,132.603 42.024 M173.747 41.895 C 172.918 42.449,172.809 43.426,172.809 50.324 C 172.809 57.008,172.836 57.379,173.381 58.072 L 173.953 58.799 179.282 58.799 C 185.512 58.799,186.162 58.889,186.580 59.807 C 186.799 60.286,186.888 67.548,186.888 84.917 C 186.888 101.234,186.982 109.530,187.173 109.887 C 187.464 110.431,202.616 110.740,205.056 110.252 C 206.505 109.962,206.487 110.282,206.487 84.283 C 206.487 62.542,206.531 60.093,206.933 59.480 L 207.379 58.799 213.413 58.799 L 219.448 58.799 219.881 57.960 C 220.475 56.812,220.379 42.870,219.773 42.140 C 219.370 41.655,174.465 41.416,173.747 41.895 M240.681 41.868 C 240.433 41.934,240.023 42.572,239.770 43.285 C 239.516 43.999,239.074 45.079,238.787 45.687 C 238.500 46.294,238.126 47.412,237.955 48.171 C 237.785 48.930,237.474 49.815,237.266 50.137 C 237.057 50.460,236.683 51.508,236.434 52.467 C 236.186 53.426,235.760 54.653,235.489 55.194 C 235.218 55.734,234.839 56.860,234.648 57.695 C 234.457 58.530,234.081 59.586,233.812 60.041 C 233.543 60.497,233.232 61.429,233.122 62.112 C 233.012 62.795,232.636 63.920,232.287 64.612 C 231.939 65.303,231.564 66.359,231.455 66.958 C 231.346 67.557,230.980 68.606,230.642 69.289 C 230.304 69.972,229.938 71.021,229.829 71.620 C 229.720 72.219,229.345 73.275,228.996 73.967 C 228.648 74.658,228.270 75.783,228.157 76.467 C 228.045 77.150,227.667 78.275,227.318 78.966 C 226.970 79.658,226.595 80.714,226.486 81.313 C 226.377 81.912,226.004 82.968,225.658 83.659 C 225.311 84.351,224.939 85.407,224.830 86.006 C 224.721 86.605,224.353 87.654,224.012 88.337 C 223.672 89.020,223.301 90.138,223.188 90.821 C 223.076 91.504,222.698 92.629,222.349 93.321 C 222.001 94.013,221.626 95.068,221.517 95.667 C 221.408 96.266,221.041 97.315,220.701 97.999 C 220.361 98.682,219.947 99.878,219.782 100.658 C 219.617 101.437,219.242 102.493,218.950 103.004 C 218.658 103.515,218.332 104.431,218.226 105.038 C 218.120 105.645,217.786 106.719,217.484 107.424 C 216.128 110.587,216.182 110.601,228.474 110.275 L 235.692 110.084 236.106 109.079 C 236.333 108.527,236.833 107.329,237.217 106.418 C 237.601 105.507,238.004 104.265,238.112 103.658 C 238.220 103.050,238.524 102.119,238.789 101.587 C 239.054 101.056,239.360 100.186,239.469 99.655 C 239.931 97.409,239.261 97.559,249.771 97.354 C 261.819 97.119,260.634 96.801,261.805 100.585 C 262.328 102.275,262.836 104.030,262.933 104.486 C 263.031 104.941,263.340 105.811,263.620 106.418 C 263.900 107.026,264.376 108.098,264.678 108.802 L 265.227 110.081 271.675 110.272 C 275.221 110.377,279.365 110.423,280.883 110.373 L 283.644 110.283 283.731 109.228 C 283.778 108.649,283.689 108.019,283.531 107.829 C 283.374 107.639,283.047 106.623,282.805 105.571 C 282.563 104.519,282.139 103.270,281.862 102.796 C 281.585 102.322,281.270 101.390,281.163 100.726 C 281.056 100.061,280.681 98.995,280.331 98.356 C 279.981 97.718,279.605 96.662,279.496 96.010 C 279.387 95.358,279.018 94.265,278.676 93.582 C 278.334 92.899,277.909 91.658,277.732 90.825 C 277.555 89.993,277.168 88.899,276.871 88.396 C 276.574 87.892,276.253 86.959,276.159 86.321 C 276.065 85.684,275.703 84.640,275.356 84.001 C 275.009 83.363,274.636 82.307,274.527 81.655 C 274.418 81.003,274.044 79.903,273.695 79.212 C 273.346 78.520,272.971 77.464,272.862 76.865 C 272.752 76.266,272.307 75.019,271.873 74.093 C 271.439 73.168,271.084 72.200,271.084 71.942 C 271.084 71.685,270.711 70.677,270.255 69.703 C 269.800 68.729,269.427 67.671,269.427 67.351 C 269.427 67.032,269.123 66.126,268.751 65.338 C 268.378 64.551,267.987 63.347,267.881 62.664 C 267.775 61.981,267.393 60.771,267.033 59.976 C 266.673 59.181,266.260 57.908,266.116 57.148 C 265.971 56.388,265.669 55.484,265.443 55.139 C 265.217 54.795,264.827 53.713,264.577 52.735 C 264.327 51.758,263.954 50.702,263.749 50.389 C 263.544 50.076,263.173 49.014,262.926 48.029 C 262.678 47.045,262.320 45.990,262.129 45.687 C 261.938 45.383,261.567 44.481,261.303 43.683 C 261.039 42.884,260.594 42.108,260.313 41.957 C 259.817 41.692,241.653 41.609,240.681 41.868 M77.550 59.195 C 84.637 61.342,88.337 67.117,88.337 76.030 C 88.337 79.035,87.542 83.574,86.811 84.748 C 86.480 85.280,86.115 86.025,85.999 86.404 C 85.883 86.784,85.462 87.428,85.061 87.836 C 84.661 88.244,83.961 88.964,83.506 89.436 C 83.050 89.908,81.994 90.762,81.159 91.334 C 78.234 93.338,70.579 94.685,69.851 93.324 C 69.538 92.739,69.431 59.470,69.740 58.666 C 70.025 57.923,74.310 58.213,77.550 59.195 M251.852 67.081 C 252.410 68.827,252.866 70.471,252.866 70.735 C 252.865 71.000,253.121 71.869,253.436 72.668 C 253.751 73.467,254.295 75.114,254.645 76.329 C 254.996 77.543,255.450 78.944,255.655 79.441 C 256.437 81.343,255.184 81.803,249.622 81.655 C 245.312 81.540,244.740 81.278,245.380 79.709 C 245.581 79.216,245.930 78.006,246.156 77.019 C 246.382 76.032,246.801 74.603,247.088 73.844 C 247.374 73.085,247.814 71.532,248.065 70.393 C 248.316 69.255,248.616 68.199,248.731 68.047 C 248.847 67.895,249.202 66.922,249.521 65.884 C 250.489 62.732,250.456 62.715,251.852 67.081 M143.501 65.217 C 143.666 65.863,143.880 66.825,143.975 67.357 C 144.070 67.888,144.390 68.838,144.686 69.467 C 144.983 70.097,145.345 71.355,145.491 72.263 C 145.637 73.171,146.006 74.477,146.309 75.164 C 148.656 80.467,148.040 81.435,142.321 81.435 C 136.771 81.435,136.678 81.346,138.164 77.433 C 138.509 76.522,138.876 75.184,138.979 74.460 C 139.082 73.737,139.426 72.556,139.745 71.838 C 140.063 71.119,140.479 69.719,140.668 68.727 C 140.985 67.069,142.492 64.044,143.001 64.044 C 143.110 64.044,143.335 64.572,143.501 65.217 M69.132 170.599 C 68.362 170.712,67.492 170.931,67.199 171.086 C 66.906 171.240,65.921 171.557,65.010 171.789 C 61.321 172.730,55.994 176.583,54.566 179.345 C 54.320 179.821,53.952 180.377,53.747 180.582 C 53.542 180.787,53.112 181.699,52.791 182.610 C 52.469 183.520,52.018 184.762,51.788 185.369 C 51.228 186.849,51.194 194.850,51.742 196.273 C 51.947 196.805,52.369 197.931,52.681 198.776 C 53.259 200.346,54.597 202.523,55.727 203.739 C 57.594 205.744,58.711 206.786,59.144 206.923 C 59.410 207.007,59.627 207.181,59.627 207.308 C 59.627 207.435,60.217 207.882,60.939 208.300 C 61.660 208.719,62.312 209.148,62.388 209.254 C 62.464 209.359,63.085 209.713,63.768 210.040 C 64.451 210.368,65.321 210.810,65.700 211.022 C 66.080 211.235,67.198 211.785,68.185 212.243 C 73.889 214.896,75.455 215.655,75.832 215.954 C 79.482 218.846,78.724 221.932,74.362 221.942 C 71.290 221.949,67.376 219.667,66.108 217.129 C 65.562 216.035,63.520 216.243,61.008 217.649 C 60.628 217.862,59.790 218.251,59.144 218.514 C 58.499 218.778,57.971 219.085,57.971 219.196 C 57.971 219.307,57.319 219.610,56.522 219.869 C 55.725 220.128,54.886 220.504,54.658 220.706 C 54.431 220.907,53.685 221.292,53.002 221.560 C 49.550 222.918,48.842 224.388,50.560 226.632 C 50.853 227.015,51.537 228.012,52.078 228.847 C 53.705 231.357,59.609 236.577,60.821 236.577 C 60.930 236.577,61.483 236.880,62.049 237.250 C 62.615 237.621,63.451 238.010,63.906 238.115 C 64.362 238.220,65.666 238.620,66.805 239.004 C 69.826 240.023,77.821 240.011,80.768 238.984 C 81.818 238.618,83.170 238.226,83.773 238.114 C 84.375 238.002,85.182 237.686,85.567 237.413 C 85.952 237.140,86.743 236.718,87.325 236.475 C 88.464 236.000,92.155 232.968,92.627 232.120 C 92.784 231.836,93.174 231.421,93.492 231.198 C 93.810 230.975,94.154 230.462,94.255 230.058 C 94.356 229.655,94.730 228.937,95.085 228.465 C 95.439 227.992,95.818 227.189,95.926 226.680 C 96.034 226.171,96.438 225.065,96.825 224.221 C 98.044 221.558,97.891 215.253,96.524 211.806 C 94.337 206.291,91.152 203.060,85.024 200.139 C 84.341 199.813,83.596 199.378,83.368 199.172 C 83.140 198.966,82.333 198.589,81.573 198.335 C 80.814 198.080,80.007 197.708,79.779 197.507 C 79.551 197.306,78.744 196.933,77.985 196.679 C 77.226 196.424,76.418 196.058,76.190 195.865 C 75.963 195.673,75.312 195.366,74.745 195.184 C 74.178 195.002,73.639 194.733,73.549 194.586 C 73.458 194.439,72.892 194.008,72.292 193.629 C 68.393 191.168,71.730 185.912,75.879 187.977 C 76.126 188.100,76.781 188.394,77.334 188.630 C 78.014 188.920,78.850 189.736,79.911 191.146 C 81.873 193.753,81.613 193.641,83.536 192.714 C 87.700 190.706,88.832 190.200,89.159 190.200 C 89.353 190.200,90.148 189.843,90.926 189.407 C 91.703 188.970,92.690 188.531,93.118 188.430 C 94.395 188.130,96.953 186.297,96.788 185.801 C 96.109 183.759,95.531 182.392,95.178 181.987 C 94.946 181.722,94.598 181.194,94.404 180.814 C 93.213 178.482,87.837 173.361,86.579 173.361 C 86.431 173.361,86.101 173.172,85.846 172.941 C 85.317 172.462,81.089 170.968,79.227 170.602 C 77.746 170.310,71.111 170.308,69.132 170.599 M262.526 170.577 C 261.539 170.693,260.110 170.989,259.351 171.236 C 258.592 171.483,257.288 171.865,256.453 172.085 C 255.028 172.461,252.519 173.391,251.402 173.958 C 245.907 176.746,238.233 183.422,238.233 185.415 C 238.233 185.513,237.928 185.994,237.554 186.484 C 237.180 186.974,236.664 187.917,236.407 188.580 C 236.150 189.243,235.769 189.985,235.561 190.229 C 235.354 190.473,234.930 191.588,234.620 192.707 C 234.309 193.827,233.941 194.881,233.801 195.049 C 232.600 196.496,232.600 213.442,233.801 214.889 C 233.941 215.057,234.309 216.111,234.620 217.231 C 234.930 218.350,235.354 219.465,235.561 219.709 C 235.769 219.952,236.150 220.694,236.407 221.358 C 236.664 222.021,237.180 222.964,237.554 223.454 C 237.928 223.944,238.233 224.425,238.233 224.523 C 238.233 225.192,242.995 230.564,244.642 231.752 C 247.055 233.494,249.187 234.921,249.377 234.921 C 249.493 234.921,249.995 235.231,250.493 235.611 C 250.991 235.990,251.572 236.301,251.786 236.301 C 251.999 236.301,252.947 236.667,253.891 237.114 C 254.836 237.561,256.265 238.050,257.066 238.200 C 257.867 238.351,259.082 238.678,259.765 238.927 C 262.848 240.051,273.896 240.049,278.537 238.925 C 279.979 238.575,281.843 238.199,282.678 238.089 C 283.513 237.979,284.777 237.609,285.488 237.267 C 286.198 236.925,287.250 236.558,287.825 236.450 C 288.400 236.342,289.211 236.011,289.627 235.715 C 290.042 235.419,290.792 235.036,291.292 234.865 C 291.792 234.693,292.574 234.277,293.030 233.941 C 293.485 233.604,294.168 233.235,294.548 233.121 C 294.928 233.007,295.646 232.558,296.145 232.123 C 296.644 231.688,297.203 231.327,297.387 231.321 C 297.572 231.316,298.344 230.764,299.103 230.095 L 300.483 228.879 300.563 215.268 C 300.654 199.848,300.712 200.542,299.308 200.152 C 297.713 199.709,273.904 199.770,273.016 200.219 L 272.326 200.568 272.252 207.413 C 272.159 216.004,271.668 215.299,277.744 215.312 C 282.891 215.323,282.805 215.270,282.708 218.367 C 282.607 221.603,267.646 223.562,262.802 220.975 C 262.422 220.772,261.554 220.332,260.873 219.997 C 260.192 219.662,259.509 219.237,259.355 219.051 C 259.201 218.866,258.803 218.534,258.469 218.314 C 257.451 217.640,254.863 214.290,254.509 213.187 C 254.325 212.615,254.015 211.960,253.821 211.732 C 252.427 210.099,252.303 201.228,253.636 198.448 C 253.955 197.783,254.349 196.884,254.511 196.449 C 258.042 187.001,275.778 184.893,282.883 193.076 C 284.249 194.649,284.726 194.359,290.634 188.362 C 297.190 181.707,297.123 182.121,292.269 178.237 C 290.747 177.019,288.225 175.294,287.964 175.292 C 287.865 175.291,287.230 174.923,286.551 174.473 C 285.873 174.023,284.943 173.572,284.485 173.471 C 284.027 173.371,283.373 173.105,283.031 172.882 C 282.689 172.658,281.321 172.233,279.990 171.937 C 278.660 171.642,277.012 171.205,276.329 170.967 C 274.913 170.474,265.641 170.212,262.526 170.577 M106.110 172.319 C 105.576 173.351,105.714 216.430,106.257 218.357 C 106.406 218.889,106.779 220.007,107.086 220.842 C 107.392 221.677,107.646 222.560,107.651 222.804 C 107.660 223.221,108.843 225.683,110.222 228.152 C 110.988 229.524,115.184 233.776,116.802 234.819 C 118.842 236.135,122.564 237.932,123.629 238.116 C 124.184 238.212,125.694 238.610,126.984 239.001 C 130.577 240.089,139.831 240.088,143.133 238.999 C 144.348 238.599,145.882 238.187,146.541 238.085 C 147.201 237.983,148.425 237.540,149.261 237.100 C 150.097 236.661,150.935 236.301,151.124 236.301 C 151.313 236.301,151.701 236.042,151.987 235.726 C 152.274 235.410,152.883 234.986,153.342 234.784 C 155.251 233.944,159.632 229.231,160.554 227.024 C 160.761 226.529,161.047 226.053,161.189 225.965 C 161.331 225.877,161.722 224.968,162.058 223.945 C 162.394 222.921,162.785 221.937,162.927 221.757 C 163.922 220.496,164.060 217.279,164.088 194.755 L 164.115 172.671 163.506 172.050 L 162.897 171.430 154.534 171.600 C 147.396 171.745,146.119 171.834,145.825 172.204 C 145.556 172.543,145.480 177.225,145.480 193.494 L 145.480 214.350 144.474 216.423 C 142.528 220.435,137.974 223.273,134.488 222.646 C 131.256 222.065,129.408 221.266,127.923 219.809 C 124.854 216.797,124.897 217.191,124.989 192.990 C 125.030 182.150,124.994 173.062,124.909 172.795 C 124.524 171.581,123.387 171.429,114.734 171.429 L 106.570 171.429 106.110 172.319 M181.531 171.635 C 176.707 171.707,175.991 171.775,175.673 172.194 C 175.055 173.008,175.130 237.478,175.750 237.992 C 176.526 238.637,192.867 238.538,193.869 237.882 L 194.617 237.392 194.617 226.526 L 194.617 215.660 195.295 215.216 C 196.089 214.696,197.896 214.937,198.204 215.604 C 198.307 215.828,198.719 216.694,199.120 217.529 C 199.521 218.364,200.040 219.482,200.274 220.014 C 200.508 220.545,200.868 221.291,201.074 221.670 C 201.961 223.305,203.451 226.526,203.451 226.809 C 203.451 226.978,203.695 227.427,203.993 227.807 C 204.292 228.186,204.742 229.103,204.994 229.845 C 205.246 230.587,205.685 231.490,205.969 231.852 C 206.254 232.214,206.487 232.633,206.487 232.783 C 206.487 232.932,207.045 234.210,207.728 235.622 L 208.968 238.189 210.695 238.373 C 214.831 238.813,228.864 238.411,229.280 237.840 C 229.624 237.371,229.594 237.212,229.022 236.460 C 228.666 235.993,228.280 235.300,228.165 234.921 C 228.050 234.541,227.677 233.858,227.337 233.402 C 226.997 232.947,226.624 232.264,226.509 231.884 C 226.393 231.504,226.021 230.821,225.681 230.366 C 225.340 229.910,224.968 229.240,224.853 228.877 C 224.738 228.514,224.286 227.651,223.847 226.960 C 223.409 226.268,223.050 225.584,223.050 225.438 C 223.050 225.292,222.758 224.788,222.400 224.319 C 222.042 223.849,221.655 223.154,221.540 222.774 C 221.424 222.395,221.052 221.712,220.712 221.256 C 220.372 220.801,219.999 220.117,219.883 219.738 C 219.768 219.358,219.397 218.675,219.059 218.219 C 218.721 217.764,218.363 217.059,218.263 216.653 C 218.163 216.248,217.788 215.564,217.429 215.135 C 217.070 214.706,216.682 214.044,216.566 213.665 C 216.450 213.285,216.059 212.465,215.697 211.842 L 215.040 210.709 217.128 208.529 C 219.379 206.178,221.294 203.535,221.583 202.378 C 221.682 201.981,222.082 200.973,222.471 200.138 C 223.162 198.655,223.178 198.480,223.183 192.547 L 223.188 186.473 222.291 184.495 C 221.798 183.407,221.394 182.435,221.394 182.336 C 221.394 182.237,221.021 181.614,220.566 180.952 C 220.110 180.290,219.738 179.675,219.738 179.585 C 219.738 179.158,215.418 175.293,214.941 175.293 C 214.797 175.293,214.109 174.933,213.413 174.493 C 212.716 174.053,211.712 173.609,211.180 173.506 C 210.649 173.404,209.819 173.141,209.337 172.923 C 207.941 172.291,205.940 172.005,200.872 171.711 C 196.374 171.450,194.540 171.443,181.531 171.635 M310.710 171.626 C 310.262 171.695,309.738 171.959,309.546 172.211 C 308.996 172.935,309.020 237.082,309.570 237.835 C 310.203 238.701,346.127 238.829,346.987 237.968 C 347.814 237.141,347.867 222.871,347.045 222.127 C 346.599 221.723,345.569 221.670,338.135 221.670 C 327.662 221.670,328.502 222.041,328.502 217.418 C 328.502 212.769,327.882 213.114,336.254 213.108 C 340.013 213.106,343.178 212.988,343.409 212.843 C 344.053 212.436,344.189 197.904,343.558 196.940 L 343.120 196.273 336.211 196.273 L 329.302 196.273 328.902 195.316 C 328.652 194.716,328.502 193.413,328.502 191.829 C 328.502 188.033,327.872 188.268,338.075 188.268 L 346.459 188.268 346.729 187.560 C 347.184 186.363,347.076 172.745,346.606 172.102 C 346.230 171.588,313.742 171.157,310.710 171.626 M199.886 188.000 C 202.154 188.724,202.807 189.172,203.293 190.333 C 205.306 195.151,202.455 199.310,197.139 199.310 C 194.818 199.310,194.617 198.834,194.617 193.328 C 194.617 187.043,195.163 186.491,199.886 188.000 " stroke="none" fill="#f9f9f7" fill-rule="evenodd"></path><path id="path1" d="M10.950 15.919 C 10.849 16.020,10.766 43.163,10.766 76.236 L 10.766 136.370 167.012 136.370 L 323.259 136.370 323.189 76.121 L 323.119 15.873 167.127 15.804 C 81.331 15.766,11.052 15.817,10.950 15.919 M78.813 42.191 C 79.420 42.366,81.072 42.688,82.483 42.906 C 83.895 43.125,85.572 43.554,86.210 43.861 C 86.848 44.167,87.889 44.533,88.522 44.673 C 89.156 44.813,90.025 45.175,90.455 45.476 C 90.884 45.778,91.686 46.170,92.237 46.349 C 92.788 46.528,93.460 46.917,93.729 47.215 C 93.999 47.513,94.375 47.757,94.565 47.757 C 94.896 47.757,96.186 48.720,98.295 50.540 C 98.837 51.008,99.396 51.474,99.537 51.575 C 99.989 51.901,102.692 55.159,102.692 55.378 C 102.692 55.494,102.929 55.845,103.218 56.159 C 103.871 56.864,106.004 60.829,106.004 61.335 C 106.004 61.539,106.235 62.139,106.516 62.668 C 106.994 63.566,107.270 64.544,107.918 67.633 C 108.061 68.316,108.324 69.434,108.502 70.117 C 109.011 72.068,108.945 80.412,108.407 82.264 C 108.164 83.099,107.828 84.651,107.660 85.714 C 107.492 86.777,107.051 88.291,106.680 89.079 C 106.308 89.867,106.004 90.674,106.003 90.873 C 106.003 91.072,105.732 91.670,105.402 92.202 C 105.073 92.733,104.510 93.727,104.152 94.410 C 102.978 96.653,97.825 102.692,97.086 102.692 C 96.924 102.692,96.503 102.963,96.150 103.294 C 95.369 104.028,93.865 104.967,92.202 105.758 C 91.518 106.082,90.773 106.506,90.545 106.700 C 90.317 106.893,89.324 107.304,88.337 107.612 C 87.350 107.920,86.024 108.364,85.389 108.598 C 84.755 108.833,83.078 109.211,81.663 109.439 C 80.247 109.667,78.530 109.976,77.847 110.125 C 76.511 110.417,51.914 110.529,50.864 110.247 C 49.667 109.926,49.659 109.679,49.745 75.271 C 49.827 42.836,49.834 42.463,50.380 42.060 C 51.086 41.538,76.961 41.657,78.813 42.191 M152.380 42.098 C 153.003 42.420,153.283 42.865,153.641 44.099 C 153.894 44.972,154.326 46.184,154.603 46.791 C 154.879 47.398,155.253 48.516,155.434 49.275 C 155.615 50.035,155.932 50.929,156.139 51.262 C 156.346 51.596,156.779 52.838,157.102 54.023 C 157.424 55.207,157.812 56.330,157.963 56.518 C 158.115 56.705,158.472 57.747,158.757 58.832 C 159.042 59.916,159.392 60.946,159.536 61.119 C 159.680 61.292,160.046 62.329,160.349 63.423 C 160.652 64.517,161.085 65.756,161.311 66.177 C 161.537 66.598,161.931 67.744,162.188 68.723 C 162.444 69.702,162.810 70.758,163.001 71.070 C 163.192 71.381,163.565 72.437,163.829 73.416 C 164.094 74.395,164.470 75.451,164.664 75.762 C 164.858 76.074,165.172 77.012,165.362 77.847 C 165.551 78.682,165.928 79.806,166.198 80.344 C 166.468 80.883,166.779 81.814,166.888 82.414 C 166.998 83.015,167.370 84.072,167.717 84.763 C 168.063 85.455,168.435 86.511,168.542 87.110 C 168.650 87.709,169.026 88.820,169.378 89.579 C 169.731 90.338,170.156 91.580,170.325 92.340 C 170.493 93.099,170.859 94.107,171.137 94.581 C 171.416 95.054,171.781 96.083,171.949 96.867 C 172.117 97.651,172.493 98.760,172.785 99.332 C 173.076 99.903,173.403 100.862,173.511 101.462 C 173.619 102.062,173.991 103.175,174.338 103.934 C 175.026 105.438,175.845 108.433,175.845 109.445 C 175.845 110.377,175.491 110.413,166.143 110.417 L 157.684 110.421 156.783 109.018 C 156.283 108.238,155.671 106.728,155.407 105.617 C 155.145 104.518,154.746 103.255,154.521 102.810 C 154.296 102.365,153.960 101.318,153.774 100.483 C 153.589 99.648,153.382 98.761,153.314 98.511 C 153.049 97.535,151.942 97.436,142.169 97.511 L 132.647 97.585 131.908 99.047 C 131.502 99.851,131.021 101.156,130.840 101.946 C 130.659 102.735,130.153 104.338,129.714 105.507 C 129.275 106.676,128.916 107.880,128.916 108.183 C 128.916 108.486,128.617 109.082,128.250 109.508 L 127.584 110.283 118.520 110.283 L 109.455 110.283 109.370 108.949 C 109.312 108.047,109.453 107.287,109.804 106.603 C 110.090 106.046,110.545 104.783,110.816 103.796 C 111.087 102.809,111.433 101.848,111.585 101.660 C 111.738 101.473,112.088 100.459,112.364 99.407 C 112.640 98.355,113.051 97.137,113.278 96.699 C 113.504 96.262,113.893 95.117,114.142 94.156 C 114.391 93.194,114.765 92.144,114.972 91.821 C 115.180 91.499,115.552 90.443,115.800 89.475 C 116.048 88.507,116.418 87.451,116.621 87.128 C 116.825 86.806,117.127 85.886,117.294 85.084 C 117.460 84.282,117.831 83.164,118.118 82.600 C 118.404 82.035,118.837 80.796,119.080 79.847 C 119.322 78.897,119.700 77.841,119.919 77.500 C 120.138 77.159,120.405 76.384,120.511 75.776 C 120.618 75.169,120.993 74.051,121.345 73.292 C 121.697 72.533,122.119 71.311,122.283 70.577 C 122.446 69.842,122.811 68.787,123.094 68.230 C 123.377 67.674,123.806 66.442,124.048 65.492 C 124.291 64.542,124.667 63.486,124.883 63.145 C 125.100 62.805,125.480 61.720,125.728 60.735 C 125.975 59.750,126.350 58.682,126.561 58.360 C 126.772 58.039,127.030 57.292,127.135 56.700 C 127.240 56.109,127.684 54.796,128.121 53.784 C 128.559 52.772,128.918 51.716,128.919 51.438 C 128.921 51.159,129.222 50.287,129.589 49.498 C 129.956 48.710,130.444 47.334,130.673 46.441 C 131.026 45.060,131.750 43.406,132.603 42.024 C 132.944 41.474,151.305 41.542,152.380 42.098 M219.773 42.140 C 220.379 42.870,220.475 56.812,219.881 57.960 L 219.448 58.799 213.413 58.799 L 207.379 58.799 206.933 59.480 C 206.531 60.093,206.487 62.542,206.487 84.283 C 206.487 110.282,206.505 109.962,205.056 110.252 C 202.616 110.740,187.464 110.431,187.173 109.887 C 186.982 109.530,186.888 101.234,186.888 84.917 C 186.888 67.548,186.799 60.286,186.580 59.807 C 186.162 58.889,185.512 58.799,179.282 58.799 L 173.953 58.799 173.381 58.072 C 172.836 57.379,172.809 57.008,172.809 50.324 C 172.809 43.426,172.918 42.449,173.747 41.895 C 174.465 41.416,219.370 41.655,219.773 42.140 M260.313 41.957 C 260.594 42.108,261.039 42.884,261.303 43.683 C 261.567 44.481,261.938 45.383,262.129 45.687 C 262.320 45.990,262.678 47.045,262.926 48.029 C 263.173 49.014,263.544 50.076,263.749 50.389 C 263.954 50.702,264.327 51.758,264.577 52.735 C 264.827 53.713,265.217 54.795,265.443 55.139 C 265.669 55.484,265.971 56.388,266.116 57.148 C 266.260 57.908,266.673 59.181,267.033 59.976 C 267.393 60.771,267.775 61.981,267.881 62.664 C 267.987 63.347,268.378 64.551,268.751 65.338 C 269.123 66.126,269.427 67.032,269.427 67.351 C 269.427 67.671,269.800 68.729,270.255 69.703 C 270.711 70.677,271.084 71.685,271.084 71.942 C 271.084 72.200,271.439 73.168,271.873 74.093 C 272.307 75.019,272.752 76.266,272.862 76.865 C 272.971 77.464,273.346 78.520,273.695 79.212 C 274.044 79.903,274.418 81.003,274.527 81.655 C 274.636 82.307,275.009 83.363,275.356 84.001 C 275.703 84.640,276.065 85.684,276.159 86.321 C 276.253 86.959,276.574 87.892,276.871 88.396 C 277.168 88.899,277.555 89.993,277.732 90.825 C 277.909 91.658,278.334 92.899,278.676 93.582 C 279.018 94.265,279.387 95.358,279.496 96.010 C 279.605 96.662,279.981 97.718,280.331 98.356 C 280.681 98.995,281.056 100.061,281.163 100.726 C 281.270 101.390,281.585 102.322,281.862 102.796 C 282.139 103.270,282.563 104.519,282.805 105.571 C 283.047 106.623,283.374 107.639,283.531 107.829 C 283.689 108.019,283.778 108.649,283.731 109.228 L 283.644 110.283 280.883 110.373 C 279.365 110.423,275.221 110.377,271.675 110.272 L 265.227 110.081 264.678 108.802 C 264.376 108.098,263.900 107.026,263.620 106.418 C 263.340 105.811,263.031 104.941,262.933 104.486 C 262.836 104.030,262.328 102.275,261.805 100.585 C 260.634 96.801,261.819 97.119,249.771 97.354 C 239.261 97.559,239.931 97.409,239.469 99.655 C 239.360 100.186,239.054 101.056,238.789 101.587 C 238.524 102.119,238.220 103.050,238.112 103.658 C 238.004 104.265,237.601 105.507,237.217 106.418 C 236.833 107.329,236.333 108.527,236.106 109.079 L 235.692 110.084 228.474 110.275 C 216.182 110.601,216.128 110.587,217.484 107.424 C 217.786 106.719,218.120 105.645,218.226 105.038 C 218.332 104.431,218.658 103.515,218.950 103.004 C 219.242 102.493,219.617 101.437,219.782 100.658 C 219.947 99.878,220.361 98.682,220.701 97.999 C 221.041 97.315,221.408 96.266,221.517 95.667 C 221.626 95.068,222.001 94.013,222.349 93.321 C 222.698 92.629,223.076 91.504,223.188 90.821 C 223.301 90.138,223.672 89.020,224.012 88.337 C 224.353 87.654,224.721 86.605,224.830 86.006 C 224.939 85.407,225.311 84.351,225.658 83.659 C 226.004 82.968,226.377 81.912,226.486 81.313 C 226.595 80.714,226.970 79.658,227.318 78.966 C 227.667 78.275,228.045 77.150,228.157 76.467 C 228.270 75.783,228.648 74.658,228.996 73.967 C 229.345 73.275,229.720 72.219,229.829 71.620 C 229.938 71.021,230.304 69.972,230.642 69.289 C 230.980 68.606,231.346 67.557,231.455 66.958 C 231.564 66.359,231.939 65.303,232.287 64.612 C 232.636 63.920,233.012 62.795,233.122 62.112 C 233.232 61.429,233.543 60.497,233.812 60.041 C 234.081 59.586,234.457 58.530,234.648 57.695 C 234.839 56.860,235.218 55.734,235.489 55.194 C 235.760 54.653,236.186 53.426,236.434 52.467 C 236.683 51.508,237.057 50.460,237.266 50.137 C 237.474 49.815,237.785 48.930,237.955 48.171 C 238.126 47.412,238.500 46.294,238.787 45.687 C 239.074 45.079,239.516 43.999,239.770 43.285 C 240.023 42.572,240.433 41.934,240.681 41.868 C 241.653 41.609,259.817 41.692,260.313 41.957 M69.740 58.666 C 69.431 59.470,69.538 92.739,69.851 93.324 C 70.579 94.685,78.234 93.338,81.159 91.334 C 81.994 90.762,83.050 89.908,83.506 89.436 C 83.961 88.964,84.661 88.244,85.061 87.836 C 85.462 87.428,85.883 86.784,85.999 86.404 C 86.115 86.025,86.480 85.280,86.811 84.748 C 87.542 83.574,88.337 79.035,88.337 76.030 C 88.337 67.117,84.637 61.342,77.550 59.195 C 74.310 58.213,70.025 57.923,69.740 58.666 M250.271 63.720 C 250.177 63.872,249.839 64.846,249.521 65.884 C 249.202 66.922,248.847 67.895,248.731 68.047 C 248.616 68.199,248.316 69.255,248.065 70.393 C 247.814 71.532,247.374 73.085,247.088 73.844 C 246.801 74.603,246.382 76.032,246.156 77.019 C 245.930 78.006,245.581 79.216,245.380 79.709 C 244.740 81.278,245.312 81.540,249.622 81.655 C 255.184 81.803,256.437 81.343,255.655 79.441 C 255.450 78.944,254.996 77.543,254.645 76.329 C 254.295 75.114,253.751 73.467,253.436 72.668 C 253.121 71.869,252.865 71.000,252.866 70.735 C 252.870 69.342,250.596 63.194,250.271 63.720 M141.907 65.483 C 141.375 66.340,140.873 67.652,140.668 68.727 C 140.479 69.719,140.063 71.119,139.745 71.838 C 139.426 72.556,139.082 73.737,138.979 74.460 C 138.876 75.184,138.509 76.522,138.164 77.433 C 136.678 81.346,136.771 81.435,142.321 81.435 C 148.040 81.435,148.656 80.467,146.309 75.164 C 146.006 74.477,145.637 73.171,145.491 72.263 C 145.345 71.355,144.983 70.097,144.686 69.467 C 144.390 68.838,144.070 67.888,143.975 67.357 C 143.321 63.698,143.126 63.522,141.907 65.483 " stroke="none" fill="#fbac4c" fill-rule="evenodd"></path><path id="path2" d="M10.950 144.836 C 10.849 144.937,10.766 172.080,10.766 205.153 L 10.766 265.286 198.344 265.286 L 385.921 265.286 385.921 204.969 L 385.921 144.651 198.528 144.651 C 95.461 144.651,11.051 144.734,10.950 144.836 M79.227 170.602 C 81.089 170.968,85.317 172.462,85.846 172.941 C 86.101 173.172,86.431 173.361,86.579 173.361 C 87.837 173.361,93.213 178.482,94.404 180.814 C 94.598 181.194,94.946 181.722,95.178 181.987 C 95.531 182.392,96.109 183.759,96.788 185.801 C 96.953 186.297,94.395 188.130,93.118 188.430 C 92.690 188.531,91.703 188.970,90.926 189.407 C 90.148 189.843,89.353 190.200,89.159 190.200 C 88.832 190.200,87.700 190.706,83.536 192.714 C 81.613 193.641,81.873 193.753,79.911 191.146 C 78.850 189.736,78.014 188.920,77.334 188.630 C 76.781 188.394,76.126 188.100,75.879 187.977 C 71.730 185.912,68.393 191.168,72.292 193.629 C 72.892 194.008,73.458 194.439,73.549 194.586 C 73.639 194.733,74.178 195.002,74.745 195.184 C 75.312 195.366,75.963 195.673,76.190 195.865 C 76.418 196.058,77.226 196.424,77.985 196.679 C 78.744 196.933,79.551 197.306,79.779 197.507 C 80.007 197.708,80.814 198.080,81.573 198.335 C 82.333 198.589,83.140 198.966,83.368 199.172 C 83.596 199.378,84.341 199.813,85.024 200.139 C 91.152 203.060,94.337 206.291,96.524 211.806 C 97.891 215.253,98.044 221.558,96.825 224.221 C 96.438 225.065,96.034 226.171,95.926 226.680 C 95.818 227.189,95.439 227.992,95.085 228.465 C 94.730 228.937,94.356 229.655,94.255 230.058 C 94.154 230.462,93.810 230.975,93.492 231.198 C 93.174 231.421,92.784 231.836,92.627 232.120 C 92.155 232.968,88.464 236.000,87.325 236.475 C 86.743 236.718,85.952 237.140,85.567 237.413 C 85.182 237.686,84.375 238.002,83.773 238.114 C 83.170 238.226,81.818 238.618,80.768 238.984 C 77.821 240.011,69.826 240.023,66.805 239.004 C 65.666 238.620,64.362 238.220,63.906 238.115 C 63.451 238.010,62.615 237.621,62.049 237.250 C 61.483 236.880,60.930 236.577,60.821 236.577 C 59.609 236.577,53.705 231.357,52.078 228.847 C 51.537 228.012,50.853 227.015,50.560 226.632 C 48.842 224.388,49.550 222.918,53.002 221.560 C 53.685 221.292,54.431 220.907,54.658 220.706 C 54.886 220.504,55.725 220.128,56.522 219.869 C 57.319 219.610,57.971 219.307,57.971 219.196 C 57.971 219.085,58.499 218.778,59.144 218.514 C 59.790 218.251,60.628 217.862,61.008 217.649 C 63.520 216.243,65.562 216.035,66.108 217.129 C 67.376 219.667,71.290 221.949,74.362 221.942 C 78.724 221.932,79.482 218.846,75.832 215.954 C 75.455 215.655,73.889 214.896,68.185 212.243 C 67.198 211.785,66.080 211.235,65.700 211.022 C 65.321 210.810,64.451 210.368,63.768 210.040 C 63.085 209.713,62.464 209.359,62.388 209.254 C 62.312 209.148,61.660 208.719,60.939 208.300 C 60.217 207.882,59.627 207.435,59.627 207.308 C 59.627 207.181,59.410 207.007,59.144 206.923 C 58.711 206.786,57.594 205.744,55.727 203.739 C 54.597 202.523,53.259 200.346,52.681 198.776 C 52.369 197.931,51.947 196.805,51.742 196.273 C 51.194 194.850,51.228 186.849,51.788 185.369 C 52.018 184.762,52.469 183.520,52.791 182.610 C 53.112 181.699,53.542 180.787,53.747 180.582 C 53.952 180.377,54.320 179.821,54.566 179.345 C 55.994 176.583,61.321 172.730,65.010 171.789 C 65.921 171.557,66.906 171.240,67.199 171.086 C 68.483 170.407,76.583 170.081,79.227 170.602 M276.329 170.967 C 277.012 171.205,278.660 171.642,279.990 171.937 C 281.321 172.233,282.689 172.658,283.031 172.882 C 283.373 173.105,284.027 173.371,284.485 173.471 C 284.943 173.572,285.873 174.023,286.551 174.473 C 287.230 174.923,287.865 175.291,287.964 175.292 C 288.225 175.294,290.747 177.019,292.269 178.237 C 297.123 182.121,297.190 181.707,290.634 188.362 C 284.726 194.359,284.249 194.649,282.883 193.076 C 278.387 187.898,267.499 186.234,261.121 189.751 C 258.570 191.158,255.220 194.552,254.511 196.449 C 254.349 196.884,253.955 197.783,253.636 198.448 C 252.303 201.228,252.427 210.099,253.821 211.732 C 254.015 211.960,254.325 212.615,254.509 213.187 C 254.863 214.290,257.451 217.640,258.469 218.314 C 258.803 218.534,259.201 218.866,259.355 219.051 C 259.509 219.237,260.192 219.662,260.873 219.997 C 261.554 220.332,262.422 220.772,262.802 220.975 C 267.646 223.562,282.607 221.603,282.708 218.367 C 282.805 215.270,282.891 215.323,277.744 215.312 C 271.668 215.299,272.159 216.004,272.252 207.413 L 272.326 200.568 273.016 200.219 C 273.904 199.770,297.713 199.709,299.308 200.152 C 300.712 200.542,300.654 199.848,300.563 215.268 L 300.483 228.879 299.103 230.095 C 298.344 230.764,297.572 231.316,297.387 231.321 C 297.203 231.327,296.644 231.688,296.145 232.123 C 295.646 232.558,294.928 233.007,294.548 233.121 C 294.168 233.235,293.485 233.604,293.030 233.941 C 292.574 234.277,291.792 234.693,291.292 234.865 C 290.792 235.036,290.042 235.419,289.627 235.715 C 289.211 236.011,288.400 236.342,287.825 236.450 C 287.250 236.558,286.198 236.925,285.488 237.267 C 284.777 237.609,283.513 237.979,282.678 238.089 C 281.843 238.199,279.979 238.575,278.537 238.925 C 273.896 240.049,262.848 240.051,259.765 238.927 C 259.082 238.678,257.867 238.351,257.066 238.200 C 256.265 238.050,254.836 237.561,253.891 237.114 C 252.947 236.667,251.999 236.301,251.786 236.301 C 251.572 236.301,250.991 235.990,250.493 235.611 C 249.995 235.231,249.493 234.921,249.377 234.921 C 249.187 234.921,247.055 233.494,244.642 231.752 C 242.995 230.564,238.233 225.192,238.233 224.523 C 238.233 224.425,237.928 223.944,237.554 223.454 C 237.180 222.964,236.664 222.021,236.407 221.358 C 236.150 220.694,235.769 219.952,235.561 219.709 C 235.354 219.465,234.930 218.350,234.620 217.231 C 234.309 216.111,233.941 215.057,233.801 214.889 C 232.600 213.442,232.600 196.496,233.801 195.049 C 233.941 194.881,234.309 193.827,234.620 192.707 C 234.930 191.588,235.354 190.473,235.561 190.229 C 235.769 189.985,236.150 189.243,236.407 188.580 C 236.664 187.917,237.180 186.974,237.554 186.484 C 237.928 185.994,238.233 185.513,238.233 185.415 C 238.233 183.422,245.907 176.746,251.402 173.958 C 252.519 173.391,255.028 172.461,256.453 172.085 C 257.288 171.865,258.592 171.483,259.351 171.236 C 262.382 170.251,273.755 170.070,276.329 170.967 M123.827 171.869 C 125.134 172.490,125.071 171.347,124.989 192.990 C 124.897 217.191,124.854 216.797,127.923 219.809 C 129.408 221.266,131.256 222.065,134.488 222.646 C 137.974 223.273,142.528 220.435,144.474 216.423 L 145.480 214.350 145.480 193.494 C 145.480 177.225,145.556 172.543,145.825 172.204 C 146.119 171.834,147.396 171.745,154.534 171.600 L 162.897 171.430 163.506 172.050 L 164.115 172.671 164.088 194.755 C 164.060 217.279,163.922 220.496,162.927 221.757 C 162.785 221.937,162.394 222.921,162.058 223.945 C 161.722 224.968,161.331 225.877,161.189 225.965 C 161.047 226.053,160.761 226.529,160.554 227.024 C 159.632 229.231,155.251 233.944,153.342 234.784 C 152.883 234.986,152.274 235.410,151.987 235.726 C 151.701 236.042,151.313 236.301,151.124 236.301 C 150.935 236.301,150.097 236.661,149.261 237.100 C 148.425 237.540,147.201 237.983,146.541 238.085 C 145.882 238.187,144.348 238.599,143.133 238.999 C 139.831 240.088,130.577 240.089,126.984 239.001 C 125.694 238.610,124.184 238.212,123.629 238.116 C 122.564 237.932,118.842 236.135,116.802 234.819 C 115.184 233.776,110.988 229.524,110.222 228.152 C 108.843 225.683,107.660 223.221,107.651 222.804 C 107.646 222.560,107.392 221.677,107.086 220.842 C 106.779 220.007,106.406 218.889,106.257 218.357 C 105.714 216.430,105.576 173.351,106.110 172.319 L 106.570 171.429 114.734 171.429 C 121.638 171.429,123.041 171.497,123.827 171.869 M200.872 171.711 C 205.940 172.005,207.941 172.291,209.337 172.923 C 209.819 173.141,210.649 173.404,211.180 173.506 C 211.712 173.609,212.716 174.053,213.413 174.493 C 214.109 174.933,214.797 175.293,214.941 175.293 C 215.418 175.293,219.738 179.158,219.738 179.585 C 219.738 179.675,220.110 180.290,220.566 180.952 C 221.021 181.614,221.394 182.237,221.394 182.336 C 221.394 182.435,221.798 183.407,222.291 184.495 L 223.188 186.473 223.183 192.547 C 223.178 198.480,223.162 198.655,222.471 200.138 C 222.082 200.973,221.682 201.981,221.583 202.378 C 221.294 203.535,219.379 206.178,217.128 208.529 L 215.040 210.709 215.697 211.842 C 216.059 212.465,216.450 213.285,216.566 213.665 C 216.682 214.044,217.070 214.706,217.429 215.135 C 217.788 215.564,218.163 216.248,218.263 216.653 C 218.363 217.059,218.721 217.764,219.059 218.219 C 219.397 218.675,219.768 219.358,219.883 219.738 C 219.999 220.117,220.372 220.801,220.712 221.256 C 221.052 221.712,221.424 222.395,221.540 222.774 C 221.655 223.154,222.042 223.849,222.400 224.319 C 222.758 224.788,223.050 225.292,223.050 225.438 C 223.050 225.584,223.409 226.268,223.847 226.960 C 224.286 227.651,224.738 228.514,224.853 228.877 C 224.968 229.240,225.340 229.910,225.681 230.366 C 226.021 230.821,226.393 231.504,226.509 231.884 C 226.624 232.264,226.997 232.947,227.337 233.402 C 227.677 233.858,228.050 234.541,228.165 234.921 C 228.280 235.300,228.666 235.993,229.022 236.460 C 229.594 237.212,229.624 237.371,229.280 237.840 C 228.864 238.411,214.831 238.813,210.695 238.373 L 208.968 238.189 207.728 235.622 C 207.045 234.210,206.487 232.932,206.487 232.783 C 206.487 232.633,206.254 232.214,205.969 231.852 C 205.685 231.490,205.246 230.587,204.994 229.845 C 204.742 229.103,204.292 228.186,203.993 227.807 C 203.695 227.427,203.451 226.978,203.451 226.809 C 203.451 226.526,201.961 223.305,201.074 221.670 C 200.868 221.291,200.508 220.545,200.274 220.014 C 200.040 219.482,199.521 218.364,199.120 217.529 C 198.719 216.694,198.307 215.828,198.204 215.604 C 197.896 214.937,196.089 214.696,195.295 215.216 L 194.617 215.660 194.617 226.526 L 194.617 237.392 193.869 237.882 C 192.867 238.538,176.526 238.637,175.750 237.992 C 175.130 237.478,175.055 173.008,175.673 172.194 C 176.056 171.689,175.845 171.699,191.580 171.495 C 194.086 171.463,198.267 171.560,200.872 171.711 M346.606 172.102 C 347.076 172.745,347.184 186.363,346.729 187.560 L 346.459 188.268 338.075 188.268 C 327.872 188.268,328.502 188.033,328.502 191.829 C 328.502 193.413,328.652 194.716,328.902 195.316 L 329.302 196.273 336.211 196.273 L 343.120 196.273 343.558 196.940 C 344.189 197.904,344.053 212.436,343.409 212.843 C 343.178 212.988,340.013 213.106,336.254 213.108 C 327.882 213.114,328.502 212.769,328.502 217.418 C 328.502 222.041,327.662 221.670,338.135 221.670 C 345.569 221.670,346.599 221.723,347.045 222.127 C 347.867 222.871,347.814 237.141,346.987 237.968 C 346.127 238.829,310.203 238.701,309.570 237.835 C 309.020 237.082,308.996 172.935,309.546 172.211 C 310.081 171.507,310.366 171.497,328.870 171.533 C 345.700 171.566,346.226 171.582,346.606 172.102 M195.063 188.120 C 194.698 188.677,194.617 189.625,194.617 193.328 C 194.617 198.834,194.818 199.310,197.139 199.310 C 202.455 199.310,205.306 195.151,203.293 190.333 C 202.349 188.074,196.180 186.415,195.063 188.120 " stroke="none" fill="#047474" fill-rule="evenodd"></path></g></svg>